HIERARCHY
ROOT pelvis
{
  OFFSET 0 0 0
  CHANNELS 6 Xposition Yposition Zposition Zrotation Xrotation Yrotation
  JOINT pelvis_right_femur
  {
    OFFSET -11.43119 -3.542788 0.2090856
    CHANNELS 3 Zrotation Xrotation Yrotation
    JOINT right_femur_tibia
    {
      OFFSET -1.028693 -40.73281 5
      CHANNELS 3 Zrotation Xrotation Yrotation
      JOINT right_tibia_foot
      {
        OFFSET -0.5013517 -42.05707 -5
        CHANNELS 3 Zrotation Xrotation Yrotation
        End Site
        {
          OFFSET 0 -5 10
        }
      }
    }
  }
  JOINT pelvis_left_femur
  {
    OFFSET 11.43119 -3.542788 0.2090856
    CHANNELS 3 Zrotation Xrotation Yrotation
    JOINT left_femur_tibia
    {
      OFFSET 1.028693 -40.73281 5
      CHANNELS 3 Zrotation Xrotation Yrotation
      JOINT left_tibia_foot
      {
        OFFSET 0.3200228 -42.98253 -5
        CHANNELS 3 Zrotation Xrotation Yrotation
        End Site
        {
          OFFSET 0 -5 10
        }
      }
    }
  }
  JOINT pelvis_spine1
  {
    OFFSET 0 8.64413 -3.209807
    CHANNELS 3 Zrotation Xrotation Yrotation
    JOINT spine1
    {
      OFFSET 0 29.53957 -1.762685
      CHANNELS 3 Zrotation Xrotation Yrotation
      JOINT spine2
      {
        OFFSET 0 16.36153 -0.1422377
        CHANNELS 3 Zrotation Xrotation Yrotation
        JOINT neck
        {
          OFFSET 0 11.60093 5
          CHANNELS 3 Zrotation Xrotation Yrotation
          End Site
          {
            OFFSET 0 20 0
          }
        }
      }
      JOINT right_manubrium
      {
        OFFSET -4.671311 15.89868 4
        CHANNELS 3 Zrotation Xrotation Yrotation
        JOINT right_clavicle
        {
          OFFSET -13.601 1.573642 -2.74176
          CHANNELS 3 Zrotation Xrotation Yrotation
          JOINT right_humerus
          {
            OFFSET -0.06331682 -27.72702 2.252146
            CHANNELS 3 Zrotation Xrotation Yrotation
            JOINT right_radius
            {
              OFFSET -0.5696302 -23.92083 0.4042105
              CHANNELS 3 Zrotation Xrotation Yrotation
              End Site
              {
                OFFSET 0 -15 0
              }
            }
          }
        }
      }
      JOINT left_manubrium
      {
        OFFSET 4.671311 15.89868 4
        CHANNELS 3 Zrotation Xrotation Yrotation
        JOINT left_clavicle
        {
          OFFSET 13.601 1.573642 -2.74176
          CHANNELS 3 Zrotation Xrotation Yrotation
          JOINT left_humerus
          {
            OFFSET 0.000209614 -29.01858 1.101395
            CHANNELS 3 Zrotation Xrotation Yrotation
            JOINT left_radius
            {
              OFFSET -0.2288314 -24.59216 1.790347
              CHANNELS 3 Zrotation Xrotation Yrotation
              End Site
              {
                OFFSET 0 -15 0
              }
            }
          }
        }
      }
    }
  }
}
MOTION
Frames: 9
Frame Time: 0.0416666666667
0 48.05195 0 -2.836036 -21.76271 -1.042904 -50.84319 -60.04338 -38.78615 -180 81.22446 -180 11.12929 2.39971 2.362777 64.18107 -49.19234 52.15295 -180 72.13052 -180 -7.152703 -7.112328 -13.63186 -1.003101 22.30212 2.525052 6.86589 15.58201 -9.114201 -9.148499 10.40335 2.713018 11.47648 -26.30622 -5.113668 19.48399 -12.79747 25.63545 -63.04706 -32.89757 19.05343 0 -64.28897 0 18.6394 -7.477267 25.82854 -25.42485 -33.20249 -2.748979 52.15356 -23.77688 -26.70434 0 -71.1176 0 -11.87657 18.84527 -36.45245
0.01636201 48.04253 0.003978091 -2.819863 -21.79933 -0.9948311 -50.72419 -60.0648 -38.59029 -180 81.18204 -180 11.1358 2.342675 2.266391 64.2024 -49.14476 52.2107 -180 72.11104 -180 -7.138764 -7.105378 -13.73096 -1.313394 22.37945 2.531866 7.217384 15.53487 -9.352062 -7.502366 10.6104 1.121549 12.7444 -26.44783 -6.751259 19.36353 -12.86886 26.07998 -62.94503 -32.41948 18.80387 0 -64.0793 0 18.13434 -9.205403 24.8383 -25.51821 -33.30323 -2.739824 52.19328 -23.46009 -26.5143 0 -71.47316 0 -11.8211 18.92266 -36.52535
0.05209978 48.04476 0.01087249 -2.83445 -21.83754 -0.9595506 -50.55923 -60.03771 -38.36002 -180 81.18795 -180 11.13321 2.283462 2.176836 64.20156 -49.09248 52.23275 -180 72.11054 -180 -7.122156 -7.104143 -13.81481 -1.444351 22.51441 2.51996 7.571987 15.49956 -9.52558 -6.427327 10.7407 -0.102951 13.71695 -26.52237 -8.217537 19.53905 -13.07597 26.38503 -62.85893 -31.61094 18.05874 0 -63.99734 0 17.3545 -11.32937 23.6592 -25.57349 -33.3851 -2.7896 52.22807 -23.17598 -26.40955 0 -71.81373 0 -11.78472 18.99953 -36.59155
0.1011848 48.09388 0.01518731 -2.867831 -21.87748 -0.9096182 -50.30283 -59.94944 -38.07535 -180 81.24872 -180 11.1236 2.212048 2.097163 64.11155 -49.06616 52.17177 -180 72.13652 -180 -7.098945 -7.10033 -13.90006 -1.393897 22.58082 2.504821 7.945594 15.63638 -9.676361 -6.099205 10.80979 -0.8278424 14.32293 -26.56742 -9.429162 20.18975 -13.52627 26.38389 -62.79707 -30.32572 16.52081 0 -64.12637 0 16.13037 -13.88736 22.2517 -25.65234 -33.50186 -2.919996 52.28173 -22.95812 -26.37844 0 -72.03902 0 -11.77962 19.09133 -36.6441
0.1249853 48.12864 0.02437053 -2.950252 -21.9341 -0.824712 -50.01409 -59.79155 -37.83907 -180 81.30849 -180 11.1145 2.133928 2.022784 64.09487 -49.06656 52.08594 -180 72.16611 -180 -7.065447 -7.097522 -13.98226 -1.201555 22.75818 2.473414 8.280542 15.73515 -9.81467 -6.392655 10.75371 -1.142506 14.6425 -26.6961 -10.4133 21.27118 -14.37218 25.94682 -62.84298 -28.5095 14.0301 0 -64.42763 0 14.29926 -16.81995 20.62198 -25.73633 -33.68596 -2.946496 52.35571 -22.79391 -26.38612 0 -72.30054 0 -11.79745 19.17673 -36.69682
0.1806314 48.25687 0.03809953 -3.199669 -21.99273 -0.6921153 -49.54356 -59.47342 -37.54722 -180 81.4348 -180 11.09996 2.060591 1.952719 64.13523 -49.10252 51.95736 -180 72.22189 -180 -7.020664 -7.096392 -14.05634 -0.8228141 22.99121 2.289966 8.613875 15.79253 -10.06077 -7.02323 10.68889 -1.198702 14.80465 -26.91674 -11.20885 22.74076 -15.82222 25.16705 -63.06253 -26.3531 10.54355 0 -64.6984 0 11.68981 -19.91671 18.792 -25.93171 -33.9009 -2.811699 52.42627 -22.58146 -26.38538 0 -72.65088 0 -11.82118 19.25521 -36.75951
0.03419445 48.20958 0.06496386 -3.209205 -22.0221 -0.6412379 -49.33687 -59.45429 -37.493 -180 81.37183 -180 11.09555 1.962362 1.9173 64.32625 -49.0635 51.95856 -180 72.23068 -180 -6.984679 -7.092755 -14.14317 -1.016903 23.12994 2.209137 8.770225 15.67498 -10.27907 -7.731236 10.71978 -1.128525 14.88259 -27.08499 -11.86356 24.38342 -17.96693 24.34215 -63.47334 -24.13837 6.28913 0 -64.3908 0 8.338627 -22.88271 16.70404 -25.99155 -34.1931 -2.481555 52.62938 -22.32577 -26.25928 0 -73.09365 0 -11.83234 19.3384 -36.83345
0.05695193 48.37056 0.1184043 -3.590554 -22.01644 -0.6046611 -48.7864 -59.12855 -37.31672 -180 81.5111 -180 11.07473 1.917196 1.931266 64.55836 -49.05031 51.88467 -180 72.273 -180 -6.950897 -7.11866 -14.1781 -0.6788821 23.37562 1.818056 8.802434 15.58527 -10.50039 -8.304463 10.70819 -1.038128 14.99468 -27.38296 -12.33936 25.92679 -20.63278 23.82471 -64.21832 -21.82668 1.621722 0 -62.495 0 4.54262 -25.32907 14.27462 -26.30667 -34.46235 -2.120687 52.77281 -21.96287 -26.10102 0 -73.71964 0 -11.82334 19.40212 -36.92569
0.02711869 48.3939 0.1969117 -3.8455 -22.00244 -0.7323191 -48.51666 -59.0204 -37.38665 -180 81.53946 -180 11.05092 1.897772 2.02239 64.86174 -48.96671 51.87511 -180 72.23522 -180 -6.94302 -7.168578 -14.16618 -0.5418233 23.60066 1.5025 8.594579 15.4136 -10.56637 -8.708895 10.72318 -1.003668 15.10906 -27.66692 -12.74796 27.13603 -23.56055 23.7616 -65.18559 -19.66067 -2.882491 0 -59.17058 0 0.7398131 -27.13138 11.71539 -26.51781 -34.75912 -1.740342 53.01292 -21.58816 -25.87831 0 -74.44126 0 -11.80747 19.44946 -37.02269
